<?xml version="1.0" standalone="no"?>
<!DOCTYPE svg PUBLIC "-//W3C//DTD SVG 20010904//EN"
 "http://www.w3.org/TR/2001/REC-SVG-20010904/DTD/svg10.dtd">
<svg version="1.0" xmlns="http://www.w3.org/2000/svg"
 width="300.000000pt" height="300.000000pt" viewBox="0 0 300.000000 300.000000"
 preserveAspectRatio="xMidYMid meet">
<metadata>
Created by potrace 1.11, written by Peter Selinger 2001-2013
</metadata>
<g transform="translate(0.000000,300.000000) scale(0.100000,-0.100000)"
fill="#000000" stroke="none">
<path d="M941 2572 c-92 -3 -94 -3 -127 -38 -19 -19 -34 -37 -34 -40 0 -5 -23
-32 -72 -84 -16 -16 -28 -32 -28 -36 0 -4 -10 -17 -22 -29 -33 -32 -61 -65
-89 -103 -22 -32 -23 -34 -6 -46 9 -7 17 -18 17 -25 0 -6 11 -24 24 -39 14
-15 26 -31 28 -37 3 -10 22 -36 46 -61 7 -8 10 -14 5 -14 -4 0 0 -5 10 -11 9
-5 17 -17 17 -24 0 -8 5 -15 10 -15 6 0 10 -6 10 -13 0 -7 10 -24 22 -37 29
-31 68 -88 68 -99 0 -5 7 -11 15 -15 8 -3 15 -12 15 -21 0 -8 5 -15 10 -15 6
0 10 -7 10 -15 0 -8 3 -15 8 -15 4 0 23 -25 42 -55 19 -30 38 -55 43 -55 4 0
7 -7 7 -15 0 -8 5 -15 10 -15 6 0 10 -7 10 -15 0 -8 5 -15 10 -15 6 0 10 -5
10 -11 0 -7 8 -19 18 -28 9 -9 23 -28 30 -42 12 -22 27 -43 71 -95 5 -7 7 -15
4 -18 -4 -3 -1 -6 5 -6 7 0 12 -7 12 -15 0 -8 3 -15 8 -15 4 0 23 -25 42 -55
19 -30 38 -54 43 -55 4 0 7 -6 7 -13 0 -8 9 -22 20 -32 11 -10 20 -24 20 -32
0 -8 5 -11 10 -8 6 3 10 0 10 -8 0 -7 9 -23 20 -35 11 -12 20 -25 20 -30 0 -5
9 -17 20 -27 32 -29 24 -61 -37 -147 -32 -44 -57 -85 -55 -89 1 -5 -5 -9 -13
-9 -8 0 -15 -6 -15 -14 0 -7 -13 -29 -30 -47 -16 -19 -30 -40 -30 -46 0 -7 -4
-13 -10 -13 -5 0 -10 -5 -10 -11 0 -6 -6 -16 -12 -24 -23 -23 -44 -51 -52 -65
-27 -56 -32 -60 -52 -45 -10 8 -15 15 -10 15 5 0 0 8 -10 18 -19 17 -84 108
-84 118 0 3 -11 17 -25 32 -14 15 -25 32 -25 39 0 7 -5 13 -10 13 -6 0 -14 8
-17 18 -4 9 -12 22 -17 29 -30 34 -36 43 -31 43 3 0 -5 12 -19 27 -14 15 -23
30 -20 35 3 4 0 8 -6 8 -6 0 -14 8 -17 18 -4 9 -12 22 -17 29 -30 34 -36 43
-36 53 0 5 -4 10 -10 10 -5 0 -10 4 -10 10 0 9 -19 35 -47 65 -7 8 -13 18 -13
24 0 5 -10 17 -22 25 -12 9 -19 16 -14 16 5 0 1 9 -9 20 -10 11 -14 20 -10 20
4 0 -2 8 -13 19 -12 10 -22 23 -22 29 0 6 -8 16 -17 21 -10 6 -14 11 -10 11 4
0 3 6 -2 13 -46 55 -87 115 -89 130 -1 4 -14 19 -28 32 -15 14 -24 25 -20 25
4 0 -1 9 -11 19 -10 11 -27 36 -37 56 l-19 36 31 32 c18 18 32 38 32 45 0 7 7
12 15 12 8 0 15 5 15 11 0 6 12 24 28 39 43 46 53 60 45 60 -4 0 -1 5 7 10 8
5 50 10 92 10 l77 0 -21 36 c-12 20 -27 38 -34 41 -8 3 -12 8 -9 13 2 4 -5 17
-16 28 -16 18 -31 22 -84 22 -56 0 -66 -3 -83 -25 -11 -13 -23 -21 -27 -17 -4
4 -6 0 -3 -8 2 -8 -8 -26 -23 -40 -14 -14 -32 -35 -38 -48 -7 -12 -16 -20 -21
-17 -5 3 -12 -4 -15 -15 -4 -12 -21 -36 -38 -54 -18 -18 -43 -47 -57 -65 -14
-18 -31 -39 -38 -46 -18 -20 -15 -39 13 -71 14 -16 28 -37 31 -46 3 -10 10
-18 15 -18 5 0 9 -6 9 -14 0 -7 10 -24 23 -38 12 -13 43 -55 69 -94 82 -120
110 -159 119 -162 5 -2 7 -8 3 -13 -3 -5 2 -12 10 -15 9 -3 16 -12 16 -20 0
-7 10 -24 23 -37 23 -24 36 -44 63 -91 9 -16 27 -41 40 -55 13 -14 27 -34 30
-43 3 -10 10 -18 15 -18 5 0 9 -7 9 -15 0 -8 5 -15 11 -15 5 0 8 -4 5 -9 -3
-5 1 -11 9 -15 8 -3 15 -12 15 -21 0 -8 5 -15 10 -15 6 0 14 -8 17 -17 4 -10
12 -23 17 -30 30 -34 36 -43 36 -53 0 -5 5 -10 10 -10 6 0 10 -6 10 -14 0 -8
3 -16 8 -18 10 -4 64 -78 58 -78 -4 0 2 -9 12 -19 32 -37 42 -50 42 -61 0 -5
5 -10 10 -10 6 0 10 -5 10 -10 0 -10 8 -22 40 -59 8 -9 21 -29 29 -44 8 -15
18 -27 23 -27 4 0 8 -7 8 -15 0 -8 5 -15 10 -15 6 0 10 -7 10 -15 0 -12 28
-35 44 -35 2 0 19 22 37 50 18 27 37 50 42 50 6 0 8 3 4 6 -3 4 -1 12 6 20 30
33 35 42 30 48 -4 3 -1 6 6 6 7 0 9 5 6 10 -3 6 1 10 9 10 9 0 16 6 16 13 0 8
8 23 18 35 46 54 51 62 44 62 -4 1 3 9 15 19 12 10 19 21 16 25 -4 3 0 6 7 6
7 0 11 3 7 6 -3 3 5 18 19 32 13 15 24 32 24 38 0 7 7 15 16 18 8 3 12 10 9
16 -3 5 -2 10 2 10 5 0 22 20 37 45 37 58 48 66 64 49 7 -8 10 -14 7 -14 -4 0
0 -7 7 -15 30 -33 38 -45 32 -45 -4 0 3 -8 14 -19 12 -10 22 -23 22 -28 0 -6
12 -22 26 -37 15 -14 24 -26 20 -26 -4 0 2 -10 14 -22 11 -12 20 -25 20 -29 0
-5 10 -19 23 -31 13 -13 21 -30 19 -37 -3 -8 0 -11 7 -7 6 4 11 1 11 -8 0 -9
3 -16 8 -16 4 0 12 -9 17 -19 16 -31 97 -145 109 -153 6 -4 7 -8 3 -8 -4 0 1
-10 13 -22 11 -12 20 -25 20 -30 0 -22 33 -3 56 32 15 22 31 40 37 40 6 0 7 3
4 7 -4 3 3 17 15 30 12 13 18 23 13 23 -4 0 4 11 18 24 14 13 24 26 22 28 -3
2 8 18 24 35 16 18 27 33 25 35 -2 2 10 19 26 38 17 19 30 41 30 48 0 6 7 12
16 12 8 0 13 4 9 10 -3 5 3 18 14 29 11 11 17 22 14 25 -4 3 -1 6 5 6 7 0 12
4 12 10 0 14 81 120 92 120 5 0 7 4 3 9 -3 5 2 16 10 24 8 9 15 20 15 26 0 6
5 11 10 11 6 0 10 6 10 14 0 8 7 16 15 20 8 3 15 12 15 21 0 8 4 15 9 15 5 0
13 9 16 20 4 11 11 18 16 15 5 -3 6 1 3 9 -3 9 3 19 16 26 11 6 18 15 16 19
-3 4 6 19 19 31 14 13 25 28 25 34 0 5 9 19 19 30 10 12 28 38 39 58 10 21 22
35 25 31 4 -3 11 6 16 20 9 24 28 50 59 82 6 8 12 21 12 29 0 9 6 15 13 14 7
-2 11 5 9 17 -2 11 -1 17 3 13 7 -7 55 55 55 71 0 5 7 12 16 15 9 4 14 9 11
12 -3 4 5 18 18 32 13 14 22 29 19 34 -3 4 -1 8 5 8 7 0 7 8 -1 25 -6 14 -15
25 -20 25 -5 0 -6 5 -3 10 3 6 1 10 -5 10 -15 0 -49 41 -50 58 0 7 -4 10 -10
7 -5 -3 -10 2 -10 11 0 10 -3 15 -6 11 -4 -3 -26 21 -51 54 -25 32 -55 66 -66
74 -12 9 -21 18 -19 21 2 3 -8 18 -22 34 -23 28 -29 30 -94 30 -57 0 -71 -3
-78 -17 -4 -10 -6 -21 -6 -25 1 -5 -6 -8 -15 -8 -9 0 -13 -3 -10 -6 4 -4 -7
-24 -24 -45 l-31 -39 81 0 c61 0 83 -4 93 -16 7 -8 20 -24 29 -34 9 -10 29
-35 43 -56 14 -21 26 -34 26 -29 0 5 11 -7 25 -28 14 -20 30 -37 35 -37 13 0
13 -41 0 -60 -5 -8 -10 -10 -10 -5 0 6 -9 -7 -19 -28 -9 -20 -21 -34 -25 -30
-4 5 -6 -1 -4 -12 2 -12 -2 -19 -9 -17 -7 1 -13 -3 -13 -9 0 -6 -11 -25 -25
-43 -14 -18 -25 -36 -25 -41 0 -4 -12 -19 -28 -33 -15 -14 -25 -27 -22 -28 3
-1 -6 -16 -20 -33 -14 -18 -32 -45 -41 -61 -8 -15 -22 -35 -30 -43 -30 -33
-39 -46 -39 -55 0 -4 -10 -19 -22 -32 -13 -14 -22 -28 -20 -33 1 -4 -5 -10
-13 -13 -8 -4 -15 -11 -15 -18 0 -9 -13 -28 -60 -83 -5 -7 -10 -17 -10 -22 0
-6 -7 -14 -16 -19 -9 -5 -15 -12 -14 -16 1 -4 -9 -20 -23 -36 -14 -15 -24 -30
-22 -32 3 -2 -9 -18 -25 -36 -15 -17 -31 -41 -35 -52 -3 -11 -11 -20 -16 -20
-6 0 -7 -5 -4 -10 3 -5 -1 -10 -9 -10 -9 0 -16 -5 -16 -11 0 -11 -75 -125 -98
-148 -12 -13 -19 -9 -48 25 -18 21 -33 45 -34 52 0 6 -4 12 -10 12 -5 0 -10 7
-10 15 0 7 -6 18 -13 22 -7 4 -23 25 -36 46 -13 21 -30 44 -38 52 -8 8 -11 15
-6 15 4 0 -3 7 -15 16 -12 8 -20 19 -17 24 3 5 1 11 -4 15 -6 3 -34 41 -64 84
-51 74 -53 78 -38 102 9 13 20 27 26 31 5 4 6 8 2 8 -5 0 -2 7 5 15 29 32 39
45 33 45 -3 0 4 10 15 23 21 22 57 73 112 160 16 26 34 44 39 41 5 -3 8 -2 7
3 -4 14 24 59 64 103 9 10 15 20 12 22 -2 2 10 19 26 36 16 18 29 34 29 35 -3
6 44 77 51 77 5 0 12 10 16 22 4 13 14 28 23 35 9 7 12 13 7 13 -4 0 2 9 15
20 13 10 20 19 16 20 -8 0 -6 3 44 63 17 20 28 37 25 37 -3 0 4 12 17 26 12
14 21 27 20 30 -2 2 5 13 15 23 23 26 31 37 67 91 17 25 33 46 38 48 4 2 7 10
7 18 0 8 5 14 10 14 6 0 10 6 10 14 0 8 9 21 20 29 11 8 17 17 13 20 -3 4 -1
7 5 7 7 0 12 6 12 14 0 7 7 19 15 26 22 18 19 32 -16 71 -17 19 -43 49 -57 68
-15 19 -38 47 -52 62 -14 15 -41 47 -60 71 -19 23 -45 53 -57 66 -13 13 -23
27 -23 32 0 6 -21 10 -47 11 -245 2 -1088 3 -1162 1z m1166 -189 c21 -27 44
-52 51 -56 6 -4 12 -13 12 -19 0 -6 11 -21 25 -34 14 -13 25 -27 25 -32 0 -6
7 -12 15 -16 22 -8 18 -27 -10 -58 -14 -15 -25 -32 -25 -38 0 -6 -7 -13 -15
-16 -8 -4 -12 -10 -9 -15 3 -5 0 -9 -5 -9 -6 0 -11 -4 -11 -10 0 -5 -10 -21
-22 -36 -13 -14 -21 -28 -20 -31 2 -3 0 -9 -5 -12 -5 -3 -25 -28 -44 -56 -18
-27 -37 -52 -40 -55 -4 -3 -27 -38 -53 -77 -26 -40 -52 -73 -57 -73 -6 0 -8
-4 -4 -9 3 -5 -4 -16 -15 -24 -11 -7 -18 -16 -15 -19 3 -3 -6 -16 -20 -29 -13
-13 -25 -29 -25 -35 0 -6 -8 -20 -17 -32 -35 -41 -58 -76 -55 -84 1 -5 -5 -11
-13 -14 -8 -4 -15 -10 -15 -15 0 -6 -5 -15 -10 -22 -6 -7 -27 -34 -47 -62 -20
-27 -49 -67 -65 -87 -15 -20 -28 -40 -28 -43 0 -6 -10 -19 -37 -50 -7 -7 -13
-17 -13 -22 0 -4 -14 -21 -30 -37 -27 -27 -30 -27 -37 -10 -3 10 -19 35 -35
54 -15 19 -28 40 -28 47 0 7 -9 18 -20 25 -11 7 -20 17 -20 21 0 5 -13 26 -30
47 -16 20 -27 40 -23 44 3 3 -1 6 -11 6 -9 0 -15 4 -12 8 3 5 -6 20 -20 35
-13 14 -24 31 -24 37 0 5 -4 10 -10 10 -5 0 -10 6 -10 14 0 8 -13 28 -30 46
-16 18 -30 38 -30 45 0 7 -4 15 -8 17 -4 2 -23 25 -42 53 -19 27 -43 58 -52
69 -10 11 -18 24 -18 28 0 9 -11 23 -42 58 -9 10 -14 20 -12 23 3 2 -7 15 -21
28 -13 13 -25 30 -25 37 0 6 -4 12 -10 12 -5 0 -10 6 -10 14 0 8 -4 16 -8 18
-9 3 -90 117 -107 149 -5 11 -13 19 -17 19 -5 0 -8 6 -8 14 0 8 -4 16 -8 18
-4 2 -18 17 -29 34 -21 30 -21 32 -5 50 10 10 21 27 25 37 4 11 12 15 18 11 8
-4 9 -3 5 4 -4 6 2 17 14 24 11 7 20 17 20 23 0 6 9 17 20 25 11 8 20 18 20
23 0 4 10 19 23 32 l22 24 577 0 577 1 38 -47z"/>
</g>
</svg>
